<svg xmlns="http://www.w3.org/2000/svg" viewBox="0 0 512 512" role="img" aria-label="HICM Portal">
  <rect width="512" height="512" rx="72" fill="#071535"/>
  <path d="M96 86h320v204c0 78-60 120-160 150C156 410 96 368 96 290V86Z" fill="#0f766e" stroke="#fff" stroke-width="18"/>
  <path d="M136 144c47-15 85-5 120 24v164c-35-29-73-39-120-24V144Zm240 0c-47-15-85-5-120 24v164c35-29 73-39 120-24V144Z" fill="#fff"/>
  <path d="M256 168v164" stroke="#071535" stroke-width="10"/>
  <path d="M175 368c52 24 110 24 162 0" fill="none" stroke="#fff" stroke-linecap="round" stroke-width="13"/>
</svg>
